<svg xmlns="http://www.w3.org/2000/svg" width="16" height="20" fill="none"><path fill="#000" d="M15.2666 5.8C14.7333 2.06666 11 .199999 7.06664.666665 3.93331.999999.799973 3.53333.66664 7.13333c-.066667 2.2.53333 3.86667 2.66667 4.33337.93333-1.60003-.26667-1.93337-.46667-3.13337-.8-4.8 5.53333-7.999998 8.79996-4.66667 2.2667 2.33334.8 9.40004-2.86663 8.66664C5.26664 11.6 10.5333 6 7.73331 4.86666c-2.26667-.93333-3.46667 2.73334-2.4 4.6-.66667 3.13334-2 6.06664-1.46667 10.00004 1.8-1.3334 2.4-3.8 2.86667-6.4.86666.5333 1.4 1.1333 2.53333 1.2C13.4666 14.6 15.8 10 15.2666 5.8Z"/></svg>