<svg xmlns="http://www.w3.org/2000/svg" width="20" height="20" fill="none"><path fill="#000" d="M14.6 7.60003S13.1333 12.2667 13 12.6c-.0667-.4-1.1334-8.7333-1.1334-8.7333-2.53329 0-3.86662 1.8-4.59995 3.66667 0 0-1.8 4.66663-1.93333 5.06663 0-.3333-.26667-4.99997-.26667-4.99997-.13333-2.33333-2.26667-3.73333-4-3.73333l2.06667 12.6c2.66666 0 4.06666-1.8 4.8-3.6667 0 0 1.6-4.1333 1.66666-4.26663 0 .2 1.13332 8.00003 1.13332 8.00003C13.4 16.5334 14.8 14.8667 15.6 13l3.7333-9.1333c-2.6 0-4 1.8-4.7333 3.73333Z"/></svg>